# xmcd
#
# Track frame offsets:
#	150
#	16941
#	33223
#	50712
#	70900
#	86670
#	103308
#	117150
#	131797
#	144464
#	163211
#
# Disc length: 2405 seconds
# Revision: 1
# Processed by: cddbd v1.5.2PL0 Copyright (c) Steve Scherf et al.
# Submitted via: dBpowerAMP V12.0
#
DISCID=9c09630b
DTITLE=Eli Young Band - Level
DYEAR=2005
DGENRE=Country*
TTITLE0=Small Town Kid
TTITLE1=So Close Now
TTITLE2=That's The Way
TTITLE3=Level
TTITLE4=Oklahoma Girl
TTITLE5=Everything Is You
TTITLE6=Girl In Red
TTITLE7=Bring It On Home
TTITLE8=I Call The Tune
TTITLE9=Highways And Broken Hearts
TTITLE10=Bottom Line
EXTD=
EXTT0=
EXTT1=
EXTT2=
EXTT3=
EXTT4=
EXTT5=
EXTT6=
EXTT7=
EXTT8=
EXTT9=
EXTT10=
PLAYORDER=
